<svg width="16" height="16" viewBox="0 0 16 16" fill="none" xmlns="http://www.w3.org/2000/svg">
<path d="M2.88216 11.6431V5.24463H5.12337C5.89974 5.24463 6.48861 5.39404 6.88997 5.69287C7.29134 5.98877 7.49202 6.42383 7.49202 6.99805C7.49202 7.31152 7.41146 7.58838 7.25033 7.82861C7.08919 8.06592 6.86507 8.24023 6.57796 8.35156C6.90609 8.43359 7.1639 8.59912 7.3514 8.84814C7.54183 9.09717 7.63704 9.40186 7.63704 9.76221C7.63704 10.3774 7.44075 10.8433 7.04818 11.1597C6.6556 11.4761 6.09603 11.6372 5.36947 11.6431H2.88216ZM4.20052 8.85693V10.584H5.32992C5.64046 10.584 5.88216 10.5107 6.05501 10.3643C6.23079 10.2148 6.31868 10.0098 6.31868 9.74902C6.31868 9.16309 6.01546 8.86572 5.40902 8.85693H4.20052ZM4.20052 7.92529H5.17611C5.84115 7.91357 6.17367 7.64844 6.17367 7.12988C6.17367 6.83984 6.0887 6.63184 5.91878 6.50586C5.75179 6.37695 5.48665 6.3125 5.12337 6.3125H4.20052V7.92529ZM10.7352 11.731C10.0379 11.731 9.46956 11.5171 9.03011 11.0894C8.59359 10.6616 8.37533 10.0918 8.37533 9.37988V9.25684C8.37533 8.7793 8.46761 8.35303 8.65218 7.97803C8.83675 7.6001 9.09749 7.31006 9.43441 7.10791C9.77425 6.90283 10.161 6.80029 10.5946 6.80029C11.245 6.80029 11.7562 7.00537 12.1283 7.41553C12.5033 7.82568 12.6908 8.40723 12.6908 9.16016V9.67871H9.66292C9.70394 9.98926 9.82699 10.2383 10.0321 10.4258C10.2401 10.6133 10.5023 10.707 10.8187 10.707C11.3079 10.707 11.6903 10.5298 11.9657 10.1753L12.5897 10.874C12.3993 11.1436 12.1414 11.3545 11.8162 11.5068C11.491 11.6562 11.1307 11.731 10.7352 11.731ZM10.5902 7.82861C10.3382 7.82861 10.1331 7.91357 9.97493 8.0835C9.81966 8.25342 9.72005 8.49658 9.67611 8.81299H11.4427V8.71191C11.4368 8.43066 11.3607 8.21387 11.2142 8.06152C11.0677 7.90625 10.8597 7.82861 10.5902 7.82861Z" fill="#292929"/>
<rect x="9" y="5" width="3" height="1" fill="#292929"/>
<circle cx="8" cy="8" r="7.5" stroke="#292929"/>
</svg>
