<svg width="129" height="42" viewBox="0 0 129 42" fill="none" xmlns="http://www.w3.org/2000/svg">
<path d="M3.32 31.4172H0V20.2429C0.00188237 18.6108 0.666416 17.0459 1.84784 15.8917C3.02927 14.7375 4.63113 14.0881 6.30207 14.0859H17.3861V17.3289H6.30207C5.51115 17.3298 4.7529 17.6371 4.19363 18.1834C3.63437 18.7297 3.31976 19.4704 3.31882 20.2429L3.32 31.4172Z" fill="#141414"/>
<path d="M19.629 39.9999H8.54492V36.7569H19.629C20.4189 36.756 21.1762 36.4495 21.7353 35.9045C22.2944 35.3594 22.6097 34.6202 22.6122 33.8487V22.6709H25.9322V33.8487C25.9288 35.48 25.2634 37.0435 24.0819 38.1966C22.9004 39.3496 21.2991 39.998 19.629 39.9999Z" fill="#141414"/>
<path d="M39.9998 17.329H28.9158C27.2445 17.3271 25.6422 16.6779 24.4604 15.5237C23.2785 14.3694 22.6135 12.8045 22.6113 11.172V0H25.9313V11.172C25.9323 11.9448 26.247 12.6856 26.8066 13.2319C27.3661 13.7782 28.1246 14.0854 28.9158 14.086H39.9998V17.329Z" fill="#141414"/>
<path d="M48.1035 35.708H48.0244C47.3506 36.6865 46.3428 37.1758 45.001 37.1758C43.7412 37.1758 42.7598 36.7451 42.0566 35.8838C41.3594 35.0225 41.0107 33.7979 41.0107 32.21C41.0107 30.6221 41.3623 29.3887 42.0654 28.5098C42.7686 27.6309 43.7471 27.1914 45.001 27.1914C46.3076 27.1914 47.3096 27.666 48.0068 28.6152H48.1211L48.0596 27.9209L48.0244 27.2441V23.3242H49.4834V37H48.2969L48.1035 35.708ZM45.1855 35.9541C46.1816 35.9541 46.9023 35.6846 47.3477 35.1455C47.7988 34.6006 48.0244 33.7246 48.0244 32.5176V32.21C48.0244 30.8447 47.7959 29.8721 47.3389 29.292C46.8877 28.7061 46.1641 28.4131 45.168 28.4131C44.3125 28.4131 43.6562 28.7471 43.1992 29.415C42.748 30.0771 42.5225 31.0146 42.5225 32.2275C42.5225 33.458 42.748 34.3867 43.1992 35.0137C43.6504 35.6406 44.3125 35.9541 45.1855 35.9541ZM56.6553 37.1758C55.2314 37.1758 54.1064 36.7422 53.2803 35.875C52.46 35.0078 52.0498 33.8037 52.0498 32.2627C52.0498 30.71 52.4307 29.4766 53.1924 28.5625C53.96 27.6484 54.9883 27.1914 56.2773 27.1914C57.4844 27.1914 58.4395 27.5898 59.1426 28.3867C59.8457 29.1777 60.1973 30.2236 60.1973 31.5244V32.4473H53.5615C53.5908 33.5781 53.875 34.4365 54.4141 35.0225C54.959 35.6084 55.7236 35.9014 56.708 35.9014C57.7451 35.9014 58.7705 35.6846 59.7842 35.251V36.5518C59.2686 36.7744 58.7793 36.9326 58.3164 37.0264C57.8594 37.126 57.3057 37.1758 56.6553 37.1758ZM56.2598 28.4131C55.4863 28.4131 54.8682 28.665 54.4053 29.1689C53.9482 29.6729 53.6787 30.3701 53.5967 31.2607H58.6328C58.6328 30.3408 58.4277 29.6377 58.0176 29.1514C57.6074 28.6592 57.0215 28.4131 56.2598 28.4131ZM68.9072 34.3721C68.9072 35.2686 68.5732 35.96 67.9053 36.4463C67.2373 36.9326 66.2998 37.1758 65.0928 37.1758C63.8154 37.1758 62.8193 36.9736 62.1045 36.5693V35.2158C62.5674 35.4502 63.0625 35.6348 63.5898 35.7695C64.123 35.9043 64.6357 35.9717 65.1279 35.9717C65.8896 35.9717 66.4756 35.8516 66.8857 35.6113C67.2959 35.3652 67.501 34.9932 67.501 34.4951C67.501 34.1201 67.3369 33.8008 67.0088 33.5371C66.6865 33.2676 66.0537 32.9512 65.1104 32.5879C64.2139 32.2539 63.5752 31.9639 63.1943 31.7178C62.8193 31.4658 62.5381 31.1816 62.3506 30.8652C62.1689 30.5488 62.0781 30.1709 62.0781 29.7314C62.0781 28.9463 62.3975 28.3281 63.0361 27.877C63.6748 27.4199 64.5508 27.1914 65.6641 27.1914C66.7012 27.1914 67.7148 27.4023 68.7051 27.8242L68.1865 29.0107C67.2197 28.6123 66.3438 28.4131 65.5586 28.4131C64.8672 28.4131 64.3457 28.5215 63.9941 28.7383C63.6426 28.9551 63.4668 29.2539 63.4668 29.6348C63.4668 29.8926 63.5312 30.1123 63.6602 30.2939C63.7949 30.4756 64.0088 30.6484 64.3018 30.8125C64.5947 30.9766 65.1572 31.2139 65.9893 31.5244C67.1318 31.9404 67.9023 32.3594 68.3008 32.7812C68.7051 33.2031 68.9072 33.7334 68.9072 34.3721ZM72.748 37H71.2891V27.3672H72.748V37ZM71.166 24.7568C71.166 24.4229 71.248 24.1797 71.4121 24.0273C71.5762 23.8691 71.7812 23.79 72.0273 23.79C72.2617 23.79 72.4639 23.8691 72.6338 24.0273C72.8037 24.1855 72.8887 24.4287 72.8887 24.7568C72.8887 25.085 72.8037 25.3311 72.6338 25.4951C72.4639 25.6533 72.2617 25.7324 72.0273 25.7324C71.7812 25.7324 71.5762 25.6533 71.4121 25.4951C71.248 25.3311 71.166 25.085 71.166 24.7568ZM83.7256 27.3672V28.29L81.9414 28.501C82.1055 28.7061 82.252 28.9756 82.3809 29.3096C82.5098 29.6377 82.5742 30.0098 82.5742 30.4258C82.5742 31.3691 82.252 32.1221 81.6074 32.6846C80.9629 33.2471 80.0781 33.5283 78.9531 33.5283C78.666 33.5283 78.3965 33.5049 78.1445 33.458C77.5234 33.7861 77.2129 34.1992 77.2129 34.6973C77.2129 34.9609 77.3213 35.1572 77.5381 35.2861C77.7549 35.4092 78.127 35.4707 78.6543 35.4707H80.3594C81.4023 35.4707 82.2021 35.6904 82.7588 36.1299C83.3213 36.5693 83.6025 37.208 83.6025 38.0459C83.6025 39.1123 83.1748 39.9238 82.3193 40.4805C81.4639 41.043 80.2158 41.3242 78.5752 41.3242C77.3154 41.3242 76.3428 41.0898 75.6572 40.6211C74.9775 40.1523 74.6377 39.4902 74.6377 38.6348C74.6377 38.0488 74.8252 37.542 75.2002 37.1143C75.5752 36.6865 76.1025 36.3965 76.7822 36.2441C76.5361 36.1328 76.3281 35.96 76.1582 35.7256C75.9941 35.4912 75.9121 35.2188 75.9121 34.9082C75.9121 34.5566 76.0059 34.249 76.1934 33.9854C76.3809 33.7217 76.6768 33.4668 77.0811 33.2207C76.583 33.0156 76.1758 32.667 75.8594 32.1748C75.5488 31.6826 75.3936 31.1201 75.3936 30.4873C75.3936 29.4326 75.71 28.6211 76.3428 28.0527C76.9756 27.4785 77.8721 27.1914 79.0322 27.1914C79.5361 27.1914 79.9902 27.25 80.3945 27.3672H83.7256ZM76.0439 38.6172C76.0439 39.1387 76.2637 39.5342 76.7031 39.8037C77.1426 40.0732 77.7725 40.208 78.5928 40.208C79.8174 40.208 80.7227 40.0234 81.3086 39.6543C81.9004 39.291 82.1963 38.7959 82.1963 38.1689C82.1963 37.6475 82.0352 37.2842 81.7129 37.0791C81.3906 36.8799 80.7842 36.7803 79.8936 36.7803H78.1445C77.4824 36.7803 76.9668 36.9385 76.5977 37.2549C76.2285 37.5713 76.0439 38.0254 76.0439 38.6172ZM76.835 30.4521C76.835 31.126 77.0254 31.6357 77.4062 31.9814C77.7871 32.3271 78.3174 32.5 78.9971 32.5C80.4209 32.5 81.1328 31.8086 81.1328 30.4258C81.1328 28.9785 80.4121 28.2549 78.9707 28.2549C78.2852 28.2549 77.7578 28.4395 77.3887 28.8086C77.0195 29.1777 76.835 29.7256 76.835 30.4521ZM92.2949 37V30.7686C92.2949 29.9834 92.1162 29.3975 91.7588 29.0107C91.4014 28.624 90.8418 28.4307 90.0801 28.4307C89.0723 28.4307 88.334 28.7031 87.8652 29.248C87.3965 29.793 87.1621 30.6924 87.1621 31.9463V37H85.7031V27.3672H86.8896L87.127 28.6855H87.1973C87.4961 28.2109 87.915 27.8447 88.4541 27.5869C88.9932 27.3232 89.5938 27.1914 90.2559 27.1914C91.416 27.1914 92.2891 27.4727 92.875 28.0352C93.4609 28.5918 93.7539 29.4854 93.7539 30.7158V37H92.2949ZM100.759 35.04C101.228 35.04 101.79 34.9375 102.446 34.7324V36.7275C101.778 37.0264 100.958 37.1758 99.9854 37.1758C98.9131 37.1758 98.1309 36.9062 97.6387 36.3672C97.1523 35.8223 96.9092 35.0078 96.9092 33.9238V29.1865H95.626V28.0527L97.1025 27.1562L97.876 25.082H99.5898V27.1738H102.341V29.1865H99.5898V33.9238C99.5898 34.3047 99.6953 34.5859 99.9062 34.7676C100.123 34.9492 100.407 35.04 100.759 35.04ZM110.682 37L110.163 35.6641H110.093C109.642 36.2324 109.176 36.6279 108.695 36.8506C108.221 37.0674 107.6 37.1758 106.832 37.1758C105.889 37.1758 105.145 36.9062 104.6 36.3672C104.061 35.8281 103.791 35.0605 103.791 34.0645C103.791 33.0215 104.154 32.2539 104.881 31.7617C105.613 31.2637 106.715 30.9883 108.186 30.9355L109.891 30.8828V30.4521C109.891 29.4561 109.381 28.958 108.361 28.958C107.576 28.958 106.653 29.1953 105.593 29.6699L104.705 27.8594C105.836 27.2676 107.09 26.9717 108.467 26.9717C109.785 26.9717 110.796 27.2588 111.499 27.833C112.202 28.4072 112.554 29.2803 112.554 30.4521V37H110.682ZM109.891 32.4473L108.854 32.4824C108.074 32.5059 107.494 32.6465 107.113 32.9043C106.732 33.1621 106.542 33.5547 106.542 34.082C106.542 34.8379 106.976 35.2158 107.843 35.2158C108.464 35.2158 108.959 35.0371 109.328 34.6797C109.703 34.3223 109.891 33.8477 109.891 33.2559V32.4473ZM120.789 26.9893C121.949 26.9893 122.857 27.4434 123.514 28.3516C124.17 29.2539 124.498 30.4932 124.498 32.0693C124.498 33.6924 124.158 34.9492 123.479 35.8398C122.805 36.7305 121.885 37.1758 120.719 37.1758C119.564 37.1758 118.659 36.7568 118.003 35.9189H117.818L117.37 37H115.322V23.3242H118.003V26.5059C118.003 26.9102 117.968 27.5576 117.897 28.4482H118.003C118.63 27.4756 119.559 26.9893 120.789 26.9893ZM119.928 29.1338C119.266 29.1338 118.782 29.3389 118.478 29.749C118.173 30.1533 118.015 30.8242 118.003 31.7617V32.0518C118.003 33.1064 118.158 33.8623 118.469 34.3193C118.785 34.7764 119.283 35.0049 119.963 35.0049C120.514 35.0049 120.95 34.7529 121.272 34.249C121.601 33.7393 121.765 33.001 121.765 32.0342C121.765 31.0674 121.601 30.3438 121.272 29.8633C120.944 29.377 120.496 29.1338 119.928 29.1338Z" fill="#141414"/>
</svg>
